<?xml version="1.0" encoding="utf-8"?>
<!-- Generator: Adobe Illustrator 27.5.0, SVG Export Plug-In . SVG Version: 6.00 Build 0)  -->
<svg version="1.1" xmlns="http://www.w3.org/2000/svg" xmlns:xlink="http://www.w3.org/1999/xlink" x="0px" y="0px"
	 viewBox="0 0 500 500" style="enable-background:new 0 0 500 500;" xml:space="preserve">
<g id="Background">
	<rect style="fill:#FFFFFF;" width="500" height="500"/>
</g>
<g id="Objects">
	<g>
		<g>
			<path style="fill:#35363B;" d="M379.028,185.701v127.837c0,1.159-0.219,2.263-0.634,3.269c-1.29,3.237-4.45,5.511-8.146,5.511
				H121.418c-4.855,0-8.781-3.926-8.781-8.78V185.701c0-4.855,3.926-8.781,8.781-8.781h248.829
				C375.102,176.92,379.028,180.846,379.028,185.701z"/>
			<polygon style="fill:#42444F;" points="340.56,176.92 195.15,322.318 125.103,322.318 270.512,176.92 			"/>
			<path style="fill:#E6EAF0;" d="M114.819,187.841v-2.143c0-3.635,2.958-6.593,6.593-6.593h248.829
				c3.636,0,6.594,2.958,6.594,6.593v2.143H114.819z"/>
			<g id="mouse_cursor_2_">
				<path style="fill:#292A2E;" d="M379.022,309.642l-0.612,0.241l0.612,0.776v2.876c0,1.159-0.219,2.263-0.634,3.269l-3.357-4.243
					l-6.736,9.754h-0.601L355.25,284.11l23.772,14.445V309.642z"/>
			</g>
			<path style="fill:#292A2E;" d="M379.022,185.698v41.847h-28.354c-4.855,0-8.78-3.926-8.78-8.781v-41.847h28.354
				C375.097,176.917,379.022,180.843,379.022,185.698z"/>
			<path style="fill:#292A2E;" d="M135.639,262.328v59.988h-14.226c-4.855,0-8.781-3.926-8.781-8.781v-59.987h14.226
				C131.713,253.548,135.639,257.473,135.639,262.328z"/>
			<g>
				<circle style="fill:#34909D;" cx="144.371" cy="183.731" r="2.45"/>
				<circle style="fill:#FFDA58;" cx="134.739" cy="183.731" r="2.45"/>
				<circle style="fill:#BA0034;" cx="125.108" cy="183.731" r="2.45"/>
			</g>
			<g>
				<path style="fill:#E6EAF0;" d="M127.383,258.041v127.837c0,4.855-3.926,8.78-8.781,8.78H59.201c-4.855,0-8.78-3.926-8.78-8.78
					V258.041c0-4.855,3.925-8.781,8.78-8.781h59.401C123.457,249.261,127.383,253.186,127.383,258.041z"/>
				<path style="fill:#35363B;" d="M127.383,258.041v4.33H50.42v-4.33c0-4.855,3.925-8.781,8.78-8.781h59.401
					C123.457,249.261,127.383,253.186,127.383,258.041z"/>
				<g>
					<circle style="fill:#34909D;" cx="82.159" cy="256.074" r="2.45"/>
					<circle style="fill:#FFDA58;" cx="72.528" cy="256.074" r="2.45"/>
					<circle style="fill:#BA0034;" cx="62.896" cy="256.074" r="2.45"/>
				</g>
			</g>
			<g>
				<path style="fill:#E6EAF0;" d="M473.42,84.791v127.837c0,4.855-3.926,8.781-8.781,8.781h-108.4c-4.855,0-8.78-3.925-8.78-8.781
					V84.791c0-4.855,3.926-8.781,8.78-8.781h108.4C469.494,76.011,473.42,79.936,473.42,84.791z"/>
				<path style="fill:#35363B;" d="M473.42,84.791v4.33H347.459v-4.33c0-4.855,3.926-8.781,8.78-8.781h108.4
					C469.494,76.011,473.42,79.936,473.42,84.791z"/>
				<g>
					<circle style="fill:#34909D;" cx="379.198" cy="82.824" r="2.45"/>
					<circle style="fill:#FFDA58;" cx="369.567" cy="82.824" r="2.45"/>
					<circle style="fill:#BA0034;" cx="359.936" cy="82.824" r="2.45"/>
				</g>
			</g>
			<g>
				<path style="fill:#E6EAF0;" d="M448.92,344.795v62.081c0,4.855-3.926,8.781-8.78,8.781H316.2c-4.855,0-8.781-3.926-8.781-8.781
					v-62.081c0-4.855,3.926-8.781,8.781-8.781h123.94C444.994,336.014,448.92,339.94,448.92,344.795z"/>
				<path style="fill:#35363B;" d="M448.92,344.795v4.33H307.419v-4.33c0-4.855,3.926-8.781,8.781-8.781h123.94
					C444.994,336.014,448.92,339.94,448.92,344.795z"/>
				<g>
					<circle style="fill:#34909D;" cx="339.158" cy="342.828" r="2.45"/>
					<circle style="fill:#FFDA58;" cx="329.527" cy="342.828" r="2.45"/>
					<circle style="fill:#BA0034;" cx="319.896" cy="342.828" r="2.45"/>
				</g>
			</g>
			<g id="Edit_pencil_1_">
				<g>
					<g>
						
							<rect x="360.063" y="216.628" transform="matrix(0.7071 -0.7071 0.7071 0.7071 -44.8581 335.1877)" style="fill:#55C0ED;" width="44.23" height="10.229"/>
						<path style="fill:#FFFFFF;" d="M405.395,205.758l-3.963,3.963l-7.233-7.233l3.963-3.963c1.997-1.997,5.236-1.997,7.233,0l0,0
							C407.393,200.523,407.393,203.761,405.395,205.758z"/>
						<polygon style="fill:#FFFFFF;" points="362.925,233.767 370.156,240.998 363.837,243.115 359.281,244.637 360.808,240.086 
													"/>
						<polygon style="fill:#42444F;" points="360.808,240.086 363.837,243.115 359.281,244.637 						"/>
					</g>
				</g>
			</g>
			<g id="cloud_1_">
				<path style="fill:#55C0ED;" d="M147.342,117.479c-0.95,0-1.858,0.171-2.706,0.471c-0.876-4.357-3.897-7.933-7.915-9.587
					c0.155-1.219,0.245-2.459,0.245-3.721c0-16.079-13.035-29.114-29.114-29.114c-14.553,0-26.61,10.678-28.769,24.625
					c-1.192-0.264-2.429-0.408-3.7-0.408c-9.392,0-17.006,7.614-17.006,17.006s7.614,17.006,17.006,17.006h71.959
					c4.495,0,8.138-3.644,8.138-8.138C155.48,121.122,151.836,117.479,147.342,117.479z"/>
			</g>
			<text transform="matrix(1 0 0 1 92.5063 122.7949)" style="fill:#35363B; font-family:'BebasNeueBold'; font-size:45.3699px;">cms</text>
			<g id="chat_1_">
				<g>
					<path style="fill:#55C0ED;" d="M50.456,178.953l26.154,0c7.462,0,13.935,5.624,14.481,13.066
						c0.451,6.151-3.102,11.575-8.311,13.925c-2.169,0.978-2.864,3.705-1.333,5.526l5.101,6.066l-11.029-6.941
						c-3.541-2.229-7.64-3.411-11.824-3.411H50.837c-7.869,0-14.601-6.438-14.495-14.306
						C36.445,185.201,42.756,178.953,50.456,178.953z"/>
					<path style="fill:#FFFFFF;" d="M71.602,193.098c0,2.535,2.055,4.589,4.589,4.589c2.534,0,4.589-2.055,4.589-4.589
						c0-2.534-2.055-4.589-4.589-4.589C73.657,188.509,71.602,190.564,71.602,193.098z M59.146,193.098
						c0,2.535,2.054,4.589,4.589,4.589s4.589-2.055,4.589-4.589c0-2.534-2.055-4.589-4.589-4.589S59.146,190.564,59.146,193.098z
						 M46.691,193.098c0,2.535,2.055,4.589,4.589,4.589c2.535,0,4.589-2.055,4.589-4.589c0-2.534-2.055-4.589-4.589-4.589
						C48.745,188.509,46.691,190.564,46.691,193.098z"/>
				</g>
			</g>
			<g id="chat_2_">
				<g>
					<path style="fill:#6F7082;" d="M81.109,153.652h17.655c5.037,0,9.407,3.796,9.775,8.82c0.305,4.152-2.094,7.813-5.61,9.4
						c-1.464,0.66-1.933,2.501-0.899,3.73l3.443,4.094l-7.445-4.685c-2.391-1.504-5.157-2.303-7.982-2.303h-8.68
						c-5.312,0-9.856-4.346-9.785-9.657C71.651,157.869,75.911,153.652,81.109,153.652z"/>
					<path style="fill:#FFFFFF;" d="M95.383,163.201c0,1.711,1.387,3.098,3.098,3.098c1.711,0,3.098-1.387,3.098-3.098
						c0-1.711-1.387-3.098-3.098-3.098C96.77,160.103,95.383,161.49,95.383,163.201z M86.975,163.201
						c0,1.711,1.387,3.098,3.098,3.098s3.098-1.387,3.098-3.098c0-1.711-1.387-3.098-3.098-3.098S86.975,161.49,86.975,163.201z
						 M78.567,163.201c0,1.711,1.387,3.098,3.098,3.098c1.711,0,3.098-1.387,3.098-3.098c0-1.711-1.387-3.098-3.098-3.098
						C79.954,160.103,78.567,161.49,78.567,163.201z"/>
				</g>
			</g>
			<g id="chat_3_">
				<g>
					<path style="fill:#E6EAF0;" d="M121.852,145.041h14.008c3.997,0,7.464,3.012,7.756,6.998c0.242,3.294-1.662,6.199-4.451,7.458
						c-1.161,0.524-1.534,1.984-0.714,2.96l2.732,3.249l-5.907-3.717c-1.897-1.194-4.092-1.827-6.333-1.827h-6.887
						c-4.215,0-7.82-3.448-7.763-7.662C114.348,148.387,117.728,145.041,121.852,145.041z"/>
					<path style="fill:#FFFFFF;" d="M133.178,152.617c0,1.357,1.101,2.458,2.458,2.458c1.357,0,2.458-1.1,2.458-2.458
						c0-1.357-1.1-2.458-2.458-2.458C134.278,150.159,133.178,151.26,133.178,152.617z M126.506,152.617
						c0,1.357,1.1,2.458,2.458,2.458c1.357,0,2.458-1.1,2.458-2.458c0-1.357-1.1-2.458-2.458-2.458
						C127.607,150.159,126.506,151.26,126.506,152.617z M119.835,152.617c0,1.357,1.1,2.458,2.458,2.458
						c1.357,0,2.458-1.1,2.458-2.458c0-1.357-1.1-2.458-2.458-2.458C120.936,150.159,119.835,151.26,119.835,152.617z"/>
				</g>
			</g>
			<g id="paragraph_1_">
				<g>
					<g>
						<rect x="63.055" y="316.806" style="fill:#42444F;" width="27.733" height="3.939"/>
						<rect x="94.516" y="316.806" style="fill:#42444F;" width="29.537" height="3.939"/>
						<rect x="125.977" y="316.806" style="fill:#42444F;" width="24.52" height="3.939"/>
						<rect x="63.055" y="340.529" style="fill:#42444F;" width="23.652" height="3.939"/>
						<rect x="89.106" y="340.529" style="fill:#42444F;" width="21.119" height="3.939"/>
						<polygon style="fill:#42444F;" points="148.626,344.388 112.149,344.468 112.149,340.529 148.626,340.449 						"/>
						<rect x="63.055" y="324.713" style="fill:#42444F;" width="14.925" height="3.939"/>
						<rect x="81.709" y="324.713" style="fill:#42444F;" width="58.135" height="3.939"/>
						<rect x="143.571" y="324.713" style="fill:#42444F;" width="8.712" height="3.939"/>
						<rect x="63.055" y="332.621" style="fill:#42444F;" width="27.733" height="3.939"/>
						<rect x="93.187" y="332.621" style="fill:#55C0ED;" width="24.162" height="3.939"/>
						<rect x="121.077" y="332.621" style="fill:#42444F;" width="20.917" height="3.939"/>
					</g>
					<g>
						<rect x="63.055" y="348.246" style="fill:#55C0ED;" width="27.733" height="3.939"/>
						<rect x="94.516" y="348.246" style="fill:#42444F;" width="29.537" height="3.939"/>
						<rect x="125.977" y="348.246" style="fill:#42444F;" width="24.52" height="3.939"/>
						<rect x="63.055" y="371.969" style="fill:#55C0ED;" width="23.652" height="3.939"/>
						<rect x="89.106" y="371.969" style="fill:#42444F;" width="21.119" height="3.939"/>
						<polygon style="fill:#42444F;" points="148.626,375.828 112.149,375.909 112.149,371.969 148.626,371.889 						"/>
						<rect x="63.055" y="356.154" style="fill:#42444F;" width="14.925" height="3.939"/>
						<rect x="81.709" y="356.154" style="fill:#55C0ED;" width="58.135" height="3.939"/>
						<rect x="143.571" y="356.154" style="fill:#42444F;" width="8.712" height="3.939"/>
						<rect x="63.055" y="364.061" style="fill:#42444F;" width="27.733" height="3.939"/>
						<rect x="93.187" y="364.061" style="fill:#42444F;" width="24.162" height="3.939"/>
						<rect x="121.077" y="364.061" style="fill:#42444F;" width="20.917" height="3.939"/>
					</g>
				</g>
			</g>
			<g id="photo_image_1_">
				<g>
					<g>
						<path style="fill:#FFFFFF;" d="M424.266,162.587h-87.404c-1.286,0-2.329-1.043-2.329-2.329v-53.307
							c0-1.286,1.043-2.329,2.329-2.329h87.404c1.286,0,2.329,1.043,2.329,2.329v53.307
							C426.595,161.545,425.552,162.587,424.266,162.587z"/>
						<path style="fill:#42444F;" d="M382.325,151.923h-41.857v-4.451c1.761-3.867,4.235-6.018,6.979-7.335
							c1.082-0.522,2.201-0.908,3.336-1.218c1.268-0.348,2.553-0.597,3.817-0.825c0.854-0.158,1.463-0.904,1.438-1.77l-0.021-0.609
							c-0.021-0.531-0.274-1.028-0.7-1.339c-8.856-6.382-5.16-21.343,6.071-21.045c12.549,0.323,12.611,17.568,3.096,21.028
							c-0.75,0.269-1.264,0.982-1.202,1.774l0.004,0.087c0.054,0.858,0.729,1.542,1.583,1.62c0.444,0.042,0.875,0.087,1.297,0.141
							c0.004,0,0.004,0,0.004,0c1.069,0.137,2.08,0.319,3.034,0.551C375.951,140.133,380.046,144.12,382.325,151.923z"/>
						<path style="fill:#42444F;" d="M419.483,151.923h-32.222c0.539-2.698,1.376-4.704,2.412-6.208
							c2.354-3.419,5.732-4.277,8.968-4.874c0.083-0.013,0.166-0.029,0.249-0.046c0.642-0.116,1.103-0.684,1.082-1.339l-0.012-0.389
							c-0.004-0.066-0.012-0.137-0.021-0.207c-0.062-0.323-0.249-0.613-0.518-0.804c-2.876-2.093-3.929-5.421-3.481-8.45
							c0.551-3.759,3.407-7.053,7.949-6.933c6.822,0.174,8.599,7.178,6.212,11.807c-0.725,1.409-1.836,2.603-3.315,3.311
							c-0.211,0.1-0.431,0.195-0.655,0.274c-0.547,0.199-0.895,0.738-0.854,1.322c0.045,0.643,0.551,1.161,1.193,1.223
							c0.895,0.083,1.736,0.203,2.532,0.369c0.004-0.004,0.004-0.004,0.008,0c0.8,0.158,1.554,0.365,2.259,0.617
							c0.004,0,0.008,0,0.012,0.008c0.327,0.112,0.642,0.236,0.949,0.373v0.004c2.109,0.932,3.763,2.362,5.031,4.401
							C418.198,147.879,418.927,149.71,419.483,151.923z"/>
					</g>
					<path style="fill:#35363B;" d="M433.367,170.109h-2.734v-1.093h1.64v-1.307h1.094V170.109z M429.54,170.109h-2.187v-1.093
						h2.187V170.109z M426.26,170.109h-2.187v-1.093h2.187V170.109z M422.979,170.109h-2.187v-1.093h2.187V170.109z
						 M419.699,170.109h-2.187v-1.093h2.187V170.109z M416.419,170.109h-2.187v-1.093h2.187V170.109z M413.138,170.109h-2.187
						v-1.093h2.187V170.109z M409.858,170.109h-2.187v-1.093h2.187V170.109z M406.577,170.109h-2.187v-1.093h2.187V170.109z
						 M403.297,170.109h-2.187v-1.093h2.187V170.109z M400.017,170.109h-2.187v-1.093h2.187V170.109z M396.736,170.109h-2.187
						v-1.093h2.187V170.109z M393.456,170.109h-2.187v-1.093h2.187V170.109z M390.175,170.109h-2.187v-1.093h2.187V170.109z
						 M386.895,170.109h-2.187v-1.093h2.187V170.109z M383.615,170.109h-2.187v-1.093h2.187V170.109z M380.334,170.109h-2.187
						v-1.093h2.187V170.109z M377.054,170.109h-2.187v-1.093h2.187V170.109z M373.773,170.109h-2.187v-1.093h2.187V170.109z
						 M370.493,170.109h-2.187v-1.093h2.187V170.109z M367.213,170.109h-2.187v-1.093h2.187V170.109z M363.932,170.109h-2.187
						v-1.093h2.187V170.109z M360.652,170.109h-2.187v-1.093h2.187V170.109z M357.371,170.109h-2.187v-1.093h2.187V170.109z
						 M354.091,170.109h-2.187v-1.093h2.187V170.109z M350.811,170.109h-2.187v-1.093h2.187V170.109z M347.53,170.109h-2.187v-1.093
						h2.187V170.109z M344.25,170.109h-2.187v-1.093h2.187V170.109z M340.969,170.109h-2.187v-1.093h2.187V170.109z
						 M337.689,170.109h-2.187v-1.093h2.187V170.109z M334.409,170.109h-2.187v-1.093h2.187V170.109z M331.128,170.109h-2.187
						v-1.093h2.187V170.109z M328.854,169.103h-1.094v-2.187h1.094V169.103z M433.367,166.615h-1.094v-2.187h1.094V166.615z
						 M328.854,165.822h-1.094v-2.187h1.094V165.822z M433.367,163.335h-1.094v-2.187h1.094V163.335z M328.854,162.542h-1.094
						v-2.187h1.094V162.542z M433.367,160.055h-1.094v-2.187h1.094V160.055z M328.854,159.262h-1.094v-2.187h1.094V159.262z
						 M433.367,156.774h-1.094v-2.187h1.094V156.774z M328.854,155.981h-1.094v-2.187h1.094V155.981z M433.367,153.494h-1.094
						v-2.187h1.094V153.494z M328.854,152.701h-1.094v-2.187h1.094V152.701z M433.367,150.213h-1.094v-2.187h1.094V150.213z
						 M328.854,149.421h-1.094v-2.187h1.094V149.421z M433.367,146.933h-1.094v-2.187h1.094V146.933z M328.854,146.14h-1.094v-2.187
						h1.094V146.14z M433.367,143.653h-1.094v-2.187h1.094V143.653z M328.854,142.86h-1.094v-2.187h1.094V142.86z M433.367,140.372
						h-1.094v-2.187h1.094V140.372z M328.854,139.579h-1.094v-2.187h1.094V139.579z M433.367,137.092h-1.094v-2.187h1.094V137.092z
						 M328.854,136.299h-1.094v-2.187h1.094V136.299z M433.367,133.811h-1.094v-2.187h1.094V133.811z M328.854,133.018h-1.094
						v-2.187h1.094V133.018z M433.367,130.531h-1.094v-2.187h1.094V130.531z M328.854,129.738h-1.094v-2.187h1.094V129.738z
						 M433.367,127.251h-1.094v-2.187h1.094V127.251z M328.854,126.458h-1.094v-2.187h1.094V126.458z M433.367,123.97h-1.094v-2.187
						h1.094V123.97z M328.854,123.177h-1.094v-2.187h1.094V123.177z M433.367,120.69h-1.094v-2.187h1.094V120.69z M328.854,119.897
						h-1.094v-2.187h1.094V119.897z M433.367,117.409h-1.094v-2.187h1.094V117.409z M328.854,116.617h-1.094v-2.187h1.094V116.617z
						 M433.367,114.129h-1.094v-2.187h1.094V114.129z M328.854,113.336h-1.094v-2.187h1.094V113.336z M433.367,110.849h-1.094
						v-2.187h1.094V110.849z M328.854,110.056h-1.094v-2.187h1.094V110.056z M433.367,107.568h-1.094v-2.187h1.094V107.568z
						 M328.854,106.775h-1.094v-2.187h1.094V106.775z M433.367,104.288h-1.094v-2.187h1.094V104.288z M328.854,103.495h-1.094
						v-2.187h1.094V103.495z M433.367,101.007h-1.094v-2.187h1.094V101.007z M328.854,100.215h-1.094v-2.187h1.094V100.215z
						 M432.821,98.194h-2.107v-1.093h2.654v0.547l-0.547,0.039V98.194z M429.62,98.194h-2.187v-1.093h2.187V98.194z M426.339,98.194
						h-2.187v-1.093h2.187V98.194z M423.059,98.194h-2.187v-1.093h2.187V98.194z M419.778,98.194h-2.187v-1.093h2.187V98.194z
						 M416.498,98.194h-2.187v-1.093h2.187V98.194z M413.218,98.194h-2.187v-1.093h2.187V98.194z M409.937,98.194h-2.187v-1.093
						h2.187V98.194z M406.657,98.194h-2.187v-1.093h2.187V98.194z M403.377,98.194h-2.187v-1.093h2.187V98.194z M400.096,98.194
						h-2.187v-1.093h2.187V98.194z M396.816,98.194h-2.187v-1.093h2.187V98.194z M393.535,98.194h-2.187v-1.093h2.187V98.194z
						 M390.255,98.194h-2.187v-1.093h2.187V98.194z M386.975,98.194h-2.187v-1.093h2.187V98.194z M383.694,98.194h-2.187v-1.093
						h2.187V98.194z M380.414,98.194h-2.187v-1.093h2.187V98.194z M377.133,98.194h-2.187v-1.093h2.187V98.194z M373.853,98.194
						h-2.187v-1.093h2.187V98.194z M370.573,98.194h-2.187v-1.093h2.187V98.194z M367.292,98.194h-2.187v-1.093h2.187V98.194z
						 M364.012,98.194h-2.187v-1.093h2.187V98.194z M360.731,98.194h-2.187v-1.093h2.187V98.194z M357.451,98.194h-2.187v-1.093
						h2.187V98.194z M354.171,98.194h-2.187v-1.093h2.187V98.194z M350.89,98.194h-2.187v-1.093h2.187V98.194z M347.61,98.194
						h-2.187v-1.093h2.187V98.194z M344.329,98.194h-2.187v-1.093h2.187V98.194z M341.049,98.194h-2.187v-1.093h2.187V98.194z
						 M337.769,98.194h-2.187v-1.093h2.187V98.194z M334.488,98.194h-2.187v-1.093h2.187V98.194z M331.208,98.194h-2.187v-1.093
						h2.187V98.194z"/>
					<g>
						<g>
							<rect x="326.48" y="95.807" style="fill:#35363B;" width="3.55" height="3.55"/>
							<rect x="378.736" y="95.807" style="fill:#35363B;" width="3.55" height="3.55"/>
							<rect x="430.992" y="95.807" style="fill:#35363B;" width="3.551" height="3.55"/>
						</g>
						<g>
							<rect x="326.48" y="131.659" style="fill:#35363B;" width="3.55" height="3.551"/>
							<rect x="430.992" y="131.659" style="fill:#35363B;" width="3.551" height="3.551"/>
						</g>
						<g>
							<rect x="326.48" y="167.511" style="fill:#35363B;" width="3.55" height="3.551"/>
							<rect x="378.736" y="167.511" style="fill:#35363B;" width="3.55" height="3.551"/>
							<rect x="430.992" y="167.511" style="fill:#35363B;" width="3.551" height="3.551"/>
						</g>
					</g>
				</g>
			</g>
			<g id="gear_1_">
				<path style="fill:#42444F;" d="M259.155,122.689l-5.2-1.64c-1.153-0.364-1.317-1.927-0.265-2.523l4.746-2.685
					c1.311-0.742,0.659-2.748-0.838-2.578l-5.418,0.617c-1.201,0.137-1.988-1.225-1.268-2.197l3.243-4.383
					c0.896-1.211-0.516-2.779-1.814-2.014l-4.698,2.767c-1.042,0.614-2.314-0.311-2.052-1.491l1.18-5.323
					c0.326-1.471-1.601-2.329-2.476-1.103l-3.167,4.439c-0.702,0.984-2.24,0.657-2.481-0.527l-1.087-5.343
					c-0.3-1.477-2.41-1.477-2.71,0l-1.087,5.343c-0.241,1.185-1.779,1.512-2.481,0.527l-3.167-4.439
					c-0.875-1.227-2.802-0.368-2.476,1.103l1.18,5.323c0.262,1.18-1.011,2.105-2.052,1.491l-4.698-2.767
					c-1.298-0.765-2.71,0.803-1.814,2.014l3.243,4.383c0.719,0.972-0.067,2.334-1.268,2.197l-5.418-0.617
					c-1.497-0.17-2.149,1.836-0.838,2.578l4.746,2.685c1.052,0.595,0.888,2.159-0.265,2.523l-5.201,1.64
					c-1.437,0.453-1.216,2.551,0.283,2.696l5.428,0.523c1.204,0.116,1.689,1.611,0.784,2.412l-4.084,3.613
					c-1.128,0.998-0.074,2.826,1.355,2.347l5.171-1.73c1.146-0.383,2.199,0.785,1.697,1.885l-2.261,4.962
					c-0.625,1.371,1.082,2.611,2.193,1.593l4.02-3.684c0.891-0.817,2.328-0.177,2.317,1.032l-0.048,5.453
					c-0.013,1.507,2.051,1.945,2.651,0.563l2.174-5c0.482-1.109,2.055-1.109,2.537,0l2.174,5c0.601,1.382,2.664,0.943,2.651-0.563
					l-0.047-5.453c-0.011-1.209,1.426-1.849,2.317-1.032l4.02,3.684c1.111,1.018,2.818-0.222,2.193-1.593l-2.261-4.962
					c-0.501-1.1,0.551-2.269,1.697-1.885l5.171,1.73c1.429,0.478,2.484-1.349,1.355-2.347l-4.084-3.613
					c-0.906-0.801-0.42-2.297,0.784-2.412l5.428-0.523C260.372,125.24,260.592,123.142,259.155,122.689z M236.204,130.171
					c-4.908,0-8.887-3.979-8.887-8.887s3.979-8.887,8.887-8.887c4.908,0,8.887,3.979,8.887,8.887S241.112,130.171,236.204,130.171z"
					/>
			</g>
			<g id="gear_2_">
				<path style="fill:#42444F;" d="M256.661,370.546c0.207-1.081,0.313-2.198,0.313-3.339c0-1.142-0.105-2.258-0.313-3.343h-4.265
					c-0.878,0-1.67-0.529-2.005-1.341l-0.011-0.027c-0.335-0.812-0.149-1.745,0.472-2.366l3.012-3.011
					c-1.263-1.857-2.868-3.461-4.724-4.727l-3.059,3.059c-0.594,0.594-1.487,0.772-2.264,0.451l-0.144-0.06
					c-0.776-0.321-1.283-1.079-1.283-1.919v-4.328c-1.081-0.207-2.198-0.313-3.34-0.313c-1.142,0-2.258,0.105-3.343,0.313v4.329
					c0,0.84-0.506,1.597-1.282,1.919l-0.085,0.035c-0.812,0.336-1.747,0.15-2.368-0.471l-3.014-3.014
					c-1.856,1.266-3.461,2.871-4.721,4.727l3.01,3.01c0.622,0.622,0.808,1.556,0.472,2.368l-0.011,0.027
					c-0.336,0.811-1.128,1.341-2.006,1.341h-4.262c-0.207,1.085-0.313,2.201-0.313,3.343c0,1.142,0.105,2.258,0.313,3.339h4.325
					c0.863,0,1.614,0.543,1.943,1.341c0.004,0.009,0.007,0.018,0.011,0.026c0.331,0.798,0.185,1.712-0.426,2.323l-3.056,3.056
					c1.26,1.856,2.864,3.461,4.721,4.727l3.059-3.059c0.611-0.611,1.526-0.758,2.324-0.426c0.01,0.004,0.019,0.008,0.029,0.012
					c0.797,0.329,1.338,1.08,1.338,1.942v4.328c1.084,0.207,2.201,0.313,3.343,0.313c1.142,0,2.258-0.105,3.34-0.313v-4.328
					c0-0.862,0.541-1.613,1.338-1.942c0.009-0.004,0.019-0.008,0.028-0.012c0.798-0.332,1.713-0.185,2.324,0.426l3.059,3.059
					c1.856-1.263,3.461-2.867,4.724-4.724l-3.057-3.06c-0.61-0.61-0.757-1.524-0.426-2.321c0.004-0.009,0.008-0.018,0.011-0.028
					c0.329-0.798,1.08-1.341,1.943-1.341H256.661z M239.623,370.777c-2.444,0.374-4.518-1.7-4.144-4.144
					c0.233-1.523,1.477-2.768,3-3.001c2.444-0.375,4.519,1.7,4.145,4.144C242.391,369.3,241.146,370.544,239.623,370.777z"/>
			</g>
			<g id="gear_3_">
				<path style="fill:#55C0ED;" d="M299.108,342.879c0.143-0.745,0.216-1.515,0.216-2.302c0-0.787-0.073-1.557-0.216-2.305h-2.94
					c-0.605,0-1.151-0.365-1.382-0.924l-0.008-0.019c-0.231-0.56-0.103-1.203,0.325-1.632l2.076-2.076
					c-0.871-1.28-1.977-2.386-3.257-3.259l-2.109,2.109c-0.41,0.41-1.026,0.532-1.561,0.311l-0.099-0.041
					c-0.535-0.221-0.884-0.744-0.884-1.323v-2.984c-0.745-0.143-1.515-0.215-2.302-0.215c-0.787,0-1.557,0.073-2.304,0.215v2.984
					c0,0.579-0.349,1.101-0.884,1.323l-0.058,0.024c-0.56,0.232-1.204,0.104-1.633-0.325l-2.078-2.078
					c-1.28,0.873-2.386,1.979-3.254,3.259l2.075,2.075c0.429,0.428,0.557,1.073,0.325,1.633l-0.008,0.018
					c-0.232,0.56-0.777,0.924-1.383,0.924h-2.939c-0.143,0.748-0.215,1.517-0.215,2.305c0,0.787,0.072,1.557,0.215,2.302h2.982
					c0.595,0,1.113,0.374,1.34,0.924c0.003,0.006,0.005,0.012,0.008,0.018c0.228,0.55,0.127,1.18-0.294,1.602l-2.107,2.107
					c0.869,1.28,1.975,2.386,3.254,3.259l2.109-2.109c0.421-0.421,1.052-0.522,1.602-0.293c0.007,0.003,0.013,0.005,0.02,0.008
					c0.549,0.227,0.922,0.744,0.922,1.339v2.984c0.748,0.143,1.517,0.215,2.304,0.215c0.787,0,1.557-0.073,2.302-0.215v-2.984
					c0-0.595,0.373-1.112,0.923-1.339c0.007-0.003,0.013-0.005,0.019-0.008c0.55-0.229,1.181-0.128,1.602,0.293l2.109,2.109
					c1.28-0.871,2.386-1.977,3.257-3.257l-2.108-2.109c-0.42-0.421-0.522-1.05-0.294-1.6c0.003-0.006,0.005-0.013,0.008-0.019
					c0.227-0.55,0.745-0.924,1.34-0.924H299.108z M287.361,343.039c-1.685,0.258-3.115-1.172-2.857-2.857
					c0.161-1.05,1.019-1.908,2.068-2.069c1.685-0.259,3.116,1.172,2.858,2.857C289.269,342.02,288.411,342.878,287.361,343.039z"/>
			</g>
			<g>
				<g id="mouse_cursor_1_">
					<polygon style="fill:#42444F;" points="395.937,299.658 361.067,278.466 373.708,317.263 380.849,306.914 391.077,319.827 
						394.455,317.152 384.227,304.238 					"/>
				</g>
				<g>
					<g>
						<path style="fill:#42444F;" d="M402.679,285.51h-22.452c-0.645,0-1.172-0.527-1.172-1.172l0,0
							c0-0.645,0.527-1.172,1.172-1.172h22.452c0.644,0,1.172,0.527,1.172,1.172l0,0C403.851,284.983,403.324,285.51,402.679,285.51
							z"/>
						<path style="fill:#42444F;" d="M415.568,285.51h-3.392c-0.645,0-1.172-0.527-1.172-1.172l0,0c0-0.645,0.527-1.172,1.172-1.172
							h3.392c0.644,0,1.172,0.527,1.172,1.172l0,0C416.74,284.983,416.213,285.51,415.568,285.51z"/>
					</g>
					<g>
						<path style="fill:#42444F;" d="M418.267,299.518h-17.761c-0.644,0-1.172-0.527-1.172-1.172l0,0
							c0-0.645,0.527-1.172,1.172-1.172h17.761c0.644,0,1.172,0.527,1.172,1.172l0,0
							C419.438,298.99,418.911,299.518,418.267,299.518z"/>
						<path style="fill:#42444F;" d="M428.951,299.518h-3.392c-0.645,0-1.172-0.527-1.172-1.172l0,0
							c0-0.645,0.527-1.172,1.172-1.172h3.392c0.645,0,1.172,0.527,1.172,1.172l0,0C430.123,298.99,429.595,299.518,428.951,299.518
							z"/>
						<path style="fill:#42444F;" d="M442.069,299.518h-6.426c-0.644,0-1.172-0.527-1.172-1.172l0,0
							c0-0.645,0.527-1.172,1.172-1.172h6.426c0.645,0,1.172,0.527,1.172,1.172l0,0C443.241,298.99,442.714,299.518,442.069,299.518
							z"/>
						<path style="fill:#42444F;" d="M452.153,299.518h-3.392c-0.644,0-1.172-0.527-1.172-1.172l0,0
							c0-0.645,0.527-1.172,1.172-1.172h3.392c0.644,0,1.172,0.527,1.172,1.172l0,0C453.325,298.99,452.798,299.518,452.153,299.518
							z"/>
					</g>
					<g>
						<path style="fill:#42444F;" d="M429.444,314.002l-24.045-0.476c-0.645,0-1.172-0.527-1.172-1.172l0,0
							c0-0.645,0.527-1.172,1.172-1.172l24.045,0.476c0.644,0,1.172,0.527,1.172,1.172l0,0
							C430.616,313.474,430.089,314.002,429.444,314.002z"/>
						<path style="fill:#42444F;" d="M440.946,314.002h-2.004c-0.644,0-1.172-0.527-1.172-1.172l0,0
							c0-0.645,0.527-1.172,1.172-1.172h2.004c0.644,0,1.172,0.527,1.172,1.172l0,0C442.117,313.474,441.59,314.002,440.946,314.002
							z"/>
					</g>
				</g>
			</g>
			<path style="fill:none;stroke:#42444F;stroke-width:2.1869;stroke-miterlimit:10;stroke-dasharray:2.1869,1.0935;" d="
				M304.21,381.091h-23.902c-5.281,0-9.563-4.281-9.563-9.563v-44.956"/>
			<path style="fill:none;stroke:#42444F;stroke-width:2.1869;stroke-miterlimit:10;stroke-dasharray:2.1869,1.0935;" d="
				M381.646,262.281h41.624c7.263,0,13.151-5.888,13.151-13.151v-27.409"/>
			<g>
				<path style="fill:none;stroke:#42444F;stroke-width:2.1869;stroke-miterlimit:10;stroke-dasharray:2.1869,1.0935;" d="
					M88.788,281.559v-42.047c0-4.155,3.369-7.524,7.524-7.524h16.24"/>
				<circle style="fill:#42444F;" cx="88.686" cy="285.65" r="2.599"/>
			</g>
			<path style="fill:#42444F;" d="M273.279,322.178c0,1.391-1.127,2.518-2.518,2.518s-2.518-1.127-2.518-2.518
				c0-1.39,1.127-2.518,2.518-2.518S273.279,320.788,273.279,322.178z"/>
			<path style="fill:#42444F;" d="M309.471,381.099c0,1.145-0.928,2.073-2.073,2.073c-1.145,0-2.073-0.928-2.073-2.073
				c0-1.145,0.928-2.073,2.073-2.073C308.542,379.026,309.471,379.954,309.471,381.099z"/>
			<g>
				<text transform="matrix(1 0 0 1 157.1489 247.5811)" style="fill:#FFFFFF; font-family:'BebasNeueBold'; font-size:30.6966px;">yourwebsite.com</text>
				<g>
					<rect x="159.912" y="260.141" style="fill:#6F7082;" width="34.957" height="3.466"/>
					<rect x="159.912" y="266.742" style="fill:#6F7082;" width="34.957" height="3.466"/>
					<rect x="159.912" y="273.343" style="fill:#6F7082;" width="34.957" height="3.466"/>
					<rect x="159.912" y="279.944" style="fill:#6F7082;" width="23.435" height="3.466"/>
				</g>
				<g>
					<rect x="206.71" y="260.141" style="fill:#6F7082;" width="34.957" height="3.466"/>
					<rect x="206.71" y="266.742" style="fill:#6F7082;" width="34.957" height="3.466"/>
					<rect x="206.71" y="273.343" style="fill:#6F7082;" width="34.957" height="3.466"/>
					<rect x="206.71" y="279.944" style="fill:#6F7082;" width="23.435" height="3.466"/>
				</g>
				<g>
					<rect x="253.508" y="260.141" style="fill:#6F7082;" width="34.957" height="3.466"/>
					<rect x="253.508" y="266.742" style="fill:#6F7082;" width="34.957" height="3.466"/>
					<rect x="253.508" y="273.343" style="fill:#6F7082;" width="34.957" height="3.466"/>
					<rect x="253.508" y="279.944" style="fill:#6F7082;" width="23.435" height="3.466"/>
				</g>
				<g>
					<rect x="300.306" y="260.141" style="fill:#6F7082;" width="34.957" height="3.466"/>
					<rect x="300.306" y="266.742" style="fill:#6F7082;" width="34.957" height="3.466"/>
					<rect x="300.306" y="273.343" style="fill:#6F7082;" width="34.957" height="3.466"/>
					<rect x="300.306" y="279.944" style="fill:#6F7082;" width="23.435" height="3.466"/>
				</g>
			</g>
			<g id="Artwork_2_1_">
				<g>
					<rect x="318.597" y="357.135" style="fill:#FFFFFF;" width="33.67" height="46.513"/>
					<polygon style="fill:#6F7082;" points="327.386,357.135 318.597,357.135 318.597,365.932 					"/>
					<rect x="325.68" y="362.349" style="fill:#6F7082;" width="19.505" height="1.087"/>
					<rect x="325.68" y="365.477" style="fill:#6F7082;" width="19.505" height="1.087"/>
					<rect x="325.68" y="368.605" style="fill:#6F7082;" width="19.505" height="1.087"/>
					<rect x="325.68" y="371.733" style="fill:#6F7082;" width="19.505" height="1.087"/>
					<rect x="325.68" y="374.86" style="fill:#6F7082;" width="19.505" height="1.087"/>
					<rect x="325.68" y="377.988" style="fill:#6F7082;" width="19.505" height="1.087"/>
					<rect x="325.68" y="381.116" style="fill:#6F7082;" width="19.505" height="1.087"/>
					<rect x="325.68" y="384.244" style="fill:#6F7082;" width="19.505" height="1.087"/>
					<rect x="325.68" y="387.372" style="fill:#6F7082;" width="19.505" height="1.087"/>
					<rect x="325.68" y="390.499" style="fill:#6F7082;" width="19.505" height="1.087"/>
					<rect x="325.68" y="393.627" style="fill:#6F7082;" width="19.505" height="1.087"/>
					<rect x="325.68" y="396.755" style="fill:#6F7082;" width="11.797" height="1.087"/>
				</g>
			</g>
			<g id="Artwork_2_2_">
				<g>
					<rect x="360.797" y="357.135" style="fill:#FFFFFF;" width="33.669" height="46.513"/>
					<polygon style="fill:#6F7082;" points="369.586,357.135 360.797,357.135 360.797,365.932 					"/>
					<rect x="367.879" y="362.349" style="fill:#6F7082;" width="19.505" height="1.087"/>
					<rect x="367.879" y="365.477" style="fill:#6F7082;" width="19.505" height="1.087"/>
					<rect x="367.879" y="368.605" style="fill:#6F7082;" width="19.505" height="1.087"/>
					<rect x="367.879" y="371.733" style="fill:#6F7082;" width="19.505" height="1.087"/>
					<rect x="367.879" y="374.86" style="fill:#6F7082;" width="19.505" height="1.087"/>
					<rect x="367.879" y="377.988" style="fill:#6F7082;" width="19.505" height="1.087"/>
					<rect x="367.879" y="381.116" style="fill:#6F7082;" width="19.505" height="1.087"/>
					<rect x="367.879" y="384.244" style="fill:#6F7082;" width="19.505" height="1.087"/>
					<rect x="367.879" y="387.372" style="fill:#6F7082;" width="19.505" height="1.087"/>
					<rect x="367.879" y="390.499" style="fill:#6F7082;" width="19.505" height="1.087"/>
					<rect x="367.879" y="393.627" style="fill:#6F7082;" width="19.505" height="1.087"/>
					<rect x="367.879" y="396.755" style="fill:#6F7082;" width="11.797" height="1.087"/>
				</g>
			</g>
			<g id="Artwork_2_3_">
				<g>
					<rect x="402.996" y="357.135" style="fill:#FFFFFF;" width="33.669" height="46.513"/>
					<polygon style="fill:#6F7082;" points="411.785,357.135 402.996,357.135 402.996,365.932 					"/>
					<rect x="410.079" y="362.349" style="fill:#6F7082;" width="19.505" height="1.087"/>
					<rect x="410.079" y="365.477" style="fill:#6F7082;" width="19.505" height="1.087"/>
					<rect x="410.079" y="368.605" style="fill:#6F7082;" width="19.505" height="1.087"/>
					<rect x="410.079" y="371.733" style="fill:#6F7082;" width="19.505" height="1.087"/>
					<rect x="410.079" y="374.86" style="fill:#6F7082;" width="19.505" height="1.087"/>
					<rect x="410.079" y="377.988" style="fill:#6F7082;" width="19.505" height="1.087"/>
					<rect x="410.079" y="381.116" style="fill:#6F7082;" width="19.505" height="1.087"/>
					<rect x="410.079" y="384.244" style="fill:#6F7082;" width="19.505" height="1.087"/>
					<rect x="410.079" y="387.372" style="fill:#6F7082;" width="19.505" height="1.087"/>
					<rect x="410.079" y="390.499" style="fill:#6F7082;" width="19.505" height="1.087"/>
					<rect x="410.079" y="393.627" style="fill:#6F7082;" width="19.505" height="1.087"/>
					<rect x="410.079" y="396.755" style="fill:#6F7082;" width="11.797" height="1.087"/>
				</g>
			</g>
			<path style="fill:#42444F;" d="M381.062,262.353c0,1.168-0.947,2.116-2.116,2.116c-1.169,0-2.116-0.947-2.116-2.116
				c0-1.169,0.947-2.116,2.116-2.116C380.115,260.237,381.062,261.184,381.062,262.353z"/>
			<path style="fill:#42444F;" d="M438.586,218.412c0,1.169-0.947,2.116-2.116,2.116c-1.169,0-2.116-0.947-2.116-2.116
				c0-1.168,0.947-2.116,2.116-2.116C437.639,216.296,438.586,217.244,438.586,218.412z"/>
			<path style="fill:none;stroke:#42444F;stroke-width:2.1869;stroke-miterlimit:10;stroke-dasharray:2.1869,1.0935;" d="
				M157.259,124.761h23.756c8.252,0,14.941,6.689,14.941,14.941v37.225"/>
			<path style="fill:#FFFFFF;" d="M365.002,188.103h-8.368c-1.119,0-2.026-0.907-2.026-2.026v-8.368
				c0-1.119,0.907-2.026,2.026-2.026h8.368c1.119,0,2.026,0.907,2.026,2.026v8.368C367.028,187.195,366.121,188.103,365.002,188.103
				z"/>
			<path style="fill:#FFFFFF;" d="M383.633,188.103h-8.368c-1.119,0-2.026-0.907-2.026-2.026v-8.368
				c0-1.119,0.907-2.026,2.026-2.026h8.368c1.119,0,2.026,0.907,2.026,2.026v8.368C385.659,187.195,384.752,188.103,383.633,188.103
				z"/>
			<path style="fill:#FFFFFF;" d="M402.264,188.103h-8.368c-1.119,0-2.026-0.907-2.026-2.026v-8.368
				c0-1.119,0.907-2.026,2.026-2.026h8.368c1.119,0,2.026,0.907,2.026,2.026v8.368C404.29,187.195,403.383,188.103,402.264,188.103z
				"/>
			<path style="fill:#FFFFFF;" d="M420.895,188.103h-8.368c-1.119,0-2.026-0.907-2.026-2.026v-8.368
				c0-1.119,0.907-2.026,2.026-2.026h8.368c1.119,0,2.026,0.907,2.026,2.026v8.368C422.921,187.195,422.014,188.103,420.895,188.103
				z"/>
			<path style="fill:#FFFFFF;" d="M439.526,188.103h-8.368c-1.119,0-2.026-0.907-2.026-2.026v-8.368
				c0-1.119,0.907-2.026,2.026-2.026h8.368c1.119,0,2.026,0.907,2.026,2.026v8.368C441.552,187.195,440.645,188.103,439.526,188.103
				z"/>
			<path style="fill:#FFFFFF;" d="M458.157,188.103h-8.368c-1.119,0-2.026-0.907-2.026-2.026v-8.368
				c0-1.119,0.907-2.026,2.026-2.026h8.368c1.119,0,2.026,0.907,2.026,2.026v8.368C460.183,187.195,459.276,188.103,458.157,188.103
				z"/>
			<path style="fill:#FFFFFF;" d="M458.157,169.145h-8.368c-1.119,0-2.026-0.907-2.026-2.026v-8.368
				c0-1.119,0.907-2.026,2.026-2.026h8.368c1.119,0,2.026,0.907,2.026,2.026v8.368C460.183,168.238,459.276,169.145,458.157,169.145
				z"/>
			<path style="fill:#FFFFFF;" d="M458.157,150.187h-8.368c-1.119,0-2.026-0.907-2.026-2.026v-8.368
				c0-1.119,0.907-2.026,2.026-2.026h8.368c1.119,0,2.026,0.907,2.026,2.026v8.368C460.183,149.28,459.276,150.187,458.157,150.187z
				"/>
			<path style="fill:#FFFFFF;" d="M458.157,131.229h-8.368c-1.119,0-2.026-0.907-2.026-2.026v-8.368
				c0-1.119,0.907-2.026,2.026-2.026h8.368c1.119,0,2.026,0.907,2.026,2.026v8.368C460.183,130.322,459.276,131.229,458.157,131.229
				z"/>
			<path style="fill:#FFFFFF;" d="M458.157,112.271h-8.368c-1.119,0-2.026-0.907-2.026-2.026v-8.368
				c0-1.119,0.907-2.026,2.026-2.026h8.368c1.119,0,2.026,0.907,2.026,2.026v8.368C460.183,111.364,459.276,112.271,458.157,112.271
				z"/>
		</g>
		<g id="gear_4_">
			<path style="fill:#E6EAF0;" d="M276.167,148.626c0.165-0.86,0.249-1.747,0.249-2.655c0-0.908-0.084-1.795-0.249-2.657h-3.39
				c-0.698,0-1.327-0.421-1.594-1.066l-0.009-0.022c-0.267-0.645-0.118-1.388,0.375-1.881l2.394-2.394
				c-1.004-1.476-2.28-2.751-3.755-3.758l-2.432,2.432c-0.472,0.472-1.182,0.614-1.8,0.358l-0.114-0.047
				c-0.617-0.255-1.02-0.858-1.02-1.526v-3.441c-0.86-0.165-1.747-0.249-2.655-0.249c-0.908,0-1.795,0.084-2.657,0.249v3.441
				c0,0.668-0.402,1.27-1.019,1.526l-0.067,0.028c-0.646,0.267-1.389,0.12-1.883-0.374l-2.396-2.396
				c-1.476,1.007-2.751,2.282-3.753,3.758l2.393,2.393c0.494,0.494,0.642,1.237,0.375,1.883l-0.009,0.021
				c-0.267,0.645-0.896,1.066-1.595,1.066h-3.388c-0.165,0.862-0.249,1.75-0.249,2.657c0,0.908,0.084,1.795,0.249,2.655h3.438
				c0.686,0,1.283,0.431,1.545,1.066c0.003,0.007,0.006,0.014,0.009,0.021c0.263,0.634,0.147,1.361-0.339,1.847l-2.429,2.429
				c1.002,1.476,2.277,2.751,3.753,3.758l2.432-2.432c0.486-0.486,1.213-0.603,1.848-0.338c0.007,0.003,0.015,0.006,0.023,0.009
				c0.633,0.262,1.063,0.858,1.063,1.544v3.441c0.862,0.165,1.75,0.248,2.657,0.248c0.908,0,1.795-0.084,2.655-0.248v-3.441
				c0-0.686,0.43-1.282,1.064-1.544c0.008-0.003,0.015-0.006,0.022-0.009c0.634-0.264,1.362-0.147,1.848,0.339l2.432,2.432
				c1.476-1.004,2.751-2.279,3.755-3.755l-2.431-2.432c-0.485-0.485-0.602-1.211-0.339-1.845c0.003-0.007,0.006-0.015,0.009-0.022
				c0.261-0.635,0.858-1.066,1.545-1.066H276.167z M262.622,148.81c-1.943,0.297-3.592-1.352-3.295-3.294
				c0.185-1.211,1.175-2.2,2.385-2.386c1.943-0.298,3.593,1.352,3.295,3.295C264.822,147.635,263.833,148.625,262.622,148.81z"/>
		</g>
		<g id="_x30__1_">
			<path style="fill:#6F7082;" d="M291.851,107.716h-1.329c-0.736,0-1.333-0.597-1.333-1.333v-1.329c0-0.648-0.434-1.246-1.07-1.372
				c-0.854-0.17-1.61,0.488-1.61,1.313v1.387c0,0.736-0.597,1.333-1.333,1.333h-1.329c-0.648,0-1.246,0.434-1.372,1.07
				c-0.169,0.854,0.488,1.61,1.314,1.61h1.387c0.736,0,1.333,0.597,1.333,1.332v1.329c0,0.648,0.434,1.246,1.07,1.372
				c0.854,0.17,1.61-0.488,1.61-1.313v-1.388c0-0.736,0.597-1.332,1.333-1.332h1.387c0.826,0,1.483-0.756,1.314-1.61
				C293.097,108.15,292.499,107.716,291.851,107.716z"/>
		</g>
		<g id="_x30__2_">
			<path style="fill:#E6EAF0;" d="M39.508,227.71h-1.176c-0.651,0-1.179-0.528-1.179-1.179v-1.176c0-0.574-0.384-1.103-0.947-1.215
				c-0.756-0.15-1.426,0.432-1.426,1.163v1.228c0,0.651-0.528,1.179-1.179,1.179h-1.176c-0.574,0-1.103,0.385-1.215,0.947
				c-0.15,0.756,0.432,1.426,1.163,1.426H33.6c0.651,0,1.179,0.528,1.179,1.179v1.176c0,0.574,0.384,1.103,0.947,1.215
				c0.756,0.15,1.426-0.432,1.426-1.163v-1.228c0-0.651,0.528-1.179,1.179-1.179h1.228c0.731,0,1.313-0.67,1.163-1.426
				C40.611,228.094,40.082,227.71,39.508,227.71z"/>
		</g>
		<g id="_x30__3_">
			<path style="fill:#E6EAF0;" d="M197.867,389.431h-2.353c-1.303,0-2.359-1.056-2.359-2.359v-2.353
				c0-1.148-0.769-2.206-1.895-2.429c-1.512-0.3-2.851,0.864-2.851,2.325v2.457c0,1.303-1.056,2.359-2.359,2.359h-2.352
				c-1.148,0-2.206,0.769-2.429,1.895c-0.3,1.512,0.864,2.851,2.325,2.851h2.456c1.303,0,2.359,1.056,2.359,2.359v2.353
				c0,1.148,0.769,2.206,1.895,2.429c1.512,0.3,2.851-0.864,2.851-2.325v-2.457c0-1.303,1.056-2.359,2.359-2.359h2.457
				c1.462,0,2.625-1.339,2.325-2.851C200.073,390.199,199.015,389.431,197.867,389.431z"/>
		</g>
		<g id="_x30__4_">
			<path style="fill:#E6EAF0;" d="M464.788,263.198h-1.357c-0.752,0-1.361-0.609-1.361-1.361v-1.357
				c0-0.662-0.444-1.273-1.093-1.401c-0.872-0.173-1.645,0.498-1.645,1.341v1.417c0,0.752-0.609,1.361-1.361,1.361h-1.357
				c-0.662,0-1.272,0.444-1.401,1.093c-0.173,0.872,0.498,1.645,1.342,1.645h1.417c0.752,0,1.361,0.609,1.361,1.361v1.357
				c0,0.662,0.444,1.273,1.093,1.402c0.872,0.173,1.645-0.498,1.645-1.342v-1.417c0-0.752,0.609-1.361,1.361-1.361h1.417
				c0.843,0,1.515-0.773,1.341-1.645C466.061,263.641,465.451,263.198,464.788,263.198z"/>
		</g>
		<path style="fill:#E6EAF0;" d="M157.686,408.903c0,1.726-1.399,3.126-3.126,3.126s-3.126-1.4-3.126-3.126
			c0-1.726,1.399-3.126,3.126-3.126S157.686,407.177,157.686,408.903z"/>
		<path style="fill:#E6EAF0;" d="M103.261,209.038c0,1.422-1.153,2.574-2.574,2.574c-1.422,0-2.574-1.152-2.574-2.574
			s1.152-2.574,2.574-2.574C102.109,206.464,103.261,207.617,103.261,209.038z"/>
		<path style="fill:#E6EAF0;" d="M51.043,145.971c0,1.726-1.399,3.126-3.126,3.126c-1.726,0-3.126-1.399-3.126-3.126
			s1.399-3.126,3.126-3.126C49.643,142.846,51.043,144.245,51.043,145.971z"/>
		<path style="fill:#E6EAF0;" d="M223.511,164.174c0,1.625-1.317,2.942-2.942,2.942c-1.625,0-2.942-1.317-2.942-2.942
			c0-1.625,1.317-2.942,2.942-2.942C222.194,161.232,223.511,162.55,223.511,164.174z"/>
		<path style="fill:#E6EAF0;" d="M193.725,106.072c0,1.422-1.153,2.574-2.574,2.574c-1.422,0-2.574-1.153-2.574-2.574
			c0-1.422,1.152-2.574,2.574-2.574C192.572,103.498,193.725,104.65,193.725,106.072z"/>
		<path style="fill:#E6EAF0;" d="M418.412,233.309c0,1.422-1.152,2.574-2.574,2.574c-1.422,0-2.574-1.152-2.574-2.574
			c0-1.422,1.152-2.574,2.574-2.574C417.259,230.735,418.412,231.887,418.412,233.309z"/>
		<path style="fill:#E6EAF0;" d="M189.679,335.172c0,1.828-1.482,3.31-3.31,3.31c-1.828,0-3.31-1.482-3.31-3.31
			c0-1.828,1.482-3.31,3.31-3.31C188.198,331.862,189.679,333.344,189.679,335.172z"/>
		<circle style="fill:#E6EAF0;" cx="274.075" cy="412.213" r="2.39"/>
	</g>
</g>
</svg>
